<svg xmlns="http://www.w3.org/2000/svg" width="1120" height="502" viewBox="0 0 1120 502">
<rect width="100%" height="100%" fill="#ffffff"/>
<rect x="20" y="12" width="1080" height="62" rx="8" ry="8" fill="#1f2937"/>
<text x="38" y="50" font-family="Arial, Helvetica, sans-serif" font-size="24" font-weight="700" fill="#ffffff" text-anchor="start">Model</text>
<text x="368" y="50" font-family="Arial, Helvetica, sans-serif" font-size="24" font-weight="700" fill="#ffffff" text-anchor="start">MAE</text>
<text x="578" y="50" font-family="Arial, Helvetica, sans-serif" font-size="24" font-weight="700" fill="#ffffff" text-anchor="start">Source</text>
<rect x="20" y="74" width="1080" height="52" fill="#ffffff" stroke="#d1d5db" stroke-width="1"/>
<line x1="350" y1="74" x2="350" y2="126" stroke="#d1d5db" stroke-width="1"/>
<line x1="560" y1="74" x2="560" y2="126" stroke="#d1d5db" stroke-width="1"/>
<text x="38" y="107" font-family="Arial, Helvetica, sans-serif" font-size="22" font-weight="600" fill="#111827" text-anchor="start">scale only</text>
<text x="455" y="107" font-family="Arial, Helvetica, sans-serif" font-size="21" font-weight="400" fill="#111827" text-anchor="middle">47.75</text>
<text x="578" y="107" font-family="Arial, Helvetica, sans-serif" font-size="20" font-weight="400" fill="#111827" text-anchor="start">attempt1 / study01</text>
<rect x="20" y="126" width="1080" height="52" fill="#f8fafc" stroke="#d1d5db" stroke-width="1"/>
<line x1="350" y1="126" x2="350" y2="178" stroke="#d1d5db" stroke-width="1"/>
<line x1="560" y1="126" x2="560" y2="178" stroke="#d1d5db" stroke-width="1"/>
<text x="38" y="159" font-family="Arial, Helvetica, sans-serif" font-size="22" font-weight="600" fill="#111827" text-anchor="start">depth linear</text>
<text x="455" y="159" font-family="Arial, Helvetica, sans-serif" font-size="21" font-weight="400" fill="#111827" text-anchor="middle">32.11</text>
<text x="578" y="159" font-family="Arial, Helvetica, sans-serif" font-size="20" font-weight="400" fill="#111827" text-anchor="start">attempt1 / study01</text>
<rect x="20" y="178" width="1080" height="52" fill="#ffffff" stroke="#d1d5db" stroke-width="1"/>
<line x1="350" y1="178" x2="350" y2="230" stroke="#d1d5db" stroke-width="1"/>
<line x1="560" y1="178" x2="560" y2="230" stroke="#d1d5db" stroke-width="1"/>
<text x="38" y="211" font-family="Arial, Helvetica, sans-serif" font-size="22" font-weight="600" fill="#111827" text-anchor="start">linear+bb</text>
<text x="455" y="211" font-family="Arial, Helvetica, sans-serif" font-size="21" font-weight="400" fill="#111827" text-anchor="middle">14.50</text>
<text x="578" y="211" font-family="Arial, Helvetica, sans-serif" font-size="20" font-weight="400" fill="#111827" text-anchor="start">attempt1 / study01</text>
<rect x="20" y="230" width="1080" height="52" fill="#f8fafc" stroke="#d1d5db" stroke-width="1"/>
<line x1="350" y1="230" x2="350" y2="282" stroke="#d1d5db" stroke-width="1"/>
<line x1="560" y1="230" x2="560" y2="282" stroke="#d1d5db" stroke-width="1"/>
<text x="38" y="263" font-family="Arial, Helvetica, sans-serif" font-size="22" font-weight="600" fill="#111827" text-anchor="start">improved linear</text>
<text x="455" y="263" font-family="Arial, Helvetica, sans-serif" font-size="21" font-weight="400" fill="#111827" text-anchor="middle">12.55</text>
<text x="578" y="263" font-family="Arial, Helvetica, sans-serif" font-size="20" font-weight="400" fill="#111827" text-anchor="start">attempt3 / study01</text>
<rect x="20" y="282" width="1080" height="52" fill="#ffffff" stroke="#d1d5db" stroke-width="1"/>
<line x1="350" y1="282" x2="350" y2="334" stroke="#d1d5db" stroke-width="1"/>
<line x1="560" y1="282" x2="560" y2="334" stroke="#d1d5db" stroke-width="1"/>
<text x="38" y="315" font-family="Arial, Helvetica, sans-serif" font-size="22" font-weight="600" fill="#111827" text-anchor="start">RF</text>
<text x="455" y="315" font-family="Arial, Helvetica, sans-serif" font-size="21" font-weight="400" fill="#111827" text-anchor="middle">7.46</text>
<text x="578" y="315" font-family="Arial, Helvetica, sans-serif" font-size="20" font-weight="400" fill="#111827" text-anchor="start">attempt3 / study02</text>
<rect x="20" y="334" width="1080" height="52" fill="#f8fafc" stroke="#d1d5db" stroke-width="1"/>
<line x1="350" y1="334" x2="350" y2="386" stroke="#d1d5db" stroke-width="1"/>
<line x1="560" y1="334" x2="560" y2="386" stroke="#d1d5db" stroke-width="1"/>
<text x="38" y="367" font-family="Arial, Helvetica, sans-serif" font-size="22" font-weight="600" fill="#111827" text-anchor="start">RF+jitter</text>
<text x="455" y="367" font-family="Arial, Helvetica, sans-serif" font-size="21" font-weight="400" fill="#111827" text-anchor="middle">6.3614</text>
<text x="578" y="367" font-family="Arial, Helvetica, sans-serif" font-size="20" font-weight="400" fill="#111827" text-anchor="start">attempt7 / study01</text>
<rect x="20" y="386" width="1080" height="52" fill="#ffffff" stroke="#d1d5db" stroke-width="1"/>
<line x1="350" y1="386" x2="350" y2="438" stroke="#d1d5db" stroke-width="1"/>
<line x1="560" y1="386" x2="560" y2="438" stroke="#d1d5db" stroke-width="1"/>
<text x="38" y="419" font-family="Arial, Helvetica, sans-serif" font-size="22" font-weight="600" fill="#111827" text-anchor="start">ensemble</text>
<text x="455" y="419" font-family="Arial, Helvetica, sans-serif" font-size="21" font-weight="400" fill="#111827" text-anchor="middle">5.9725</text>
<text x="578" y="419" font-family="Arial, Helvetica, sans-serif" font-size="20" font-weight="400" fill="#111827" text-anchor="start">attempt7 / study01</text>
<rect x="20" y="438" width="1080" height="52" fill="#f8fafc" stroke="#d1d5db" stroke-width="1"/>
<line x1="350" y1="438" x2="350" y2="490" stroke="#d1d5db" stroke-width="1"/>
<line x1="560" y1="438" x2="560" y2="490" stroke="#d1d5db" stroke-width="1"/>
<text x="38" y="471" font-family="Arial, Helvetica, sans-serif" font-size="22" font-weight="600" fill="#111827" text-anchor="start">calibrated ensemble</text>
<text x="455" y="471" font-family="Arial, Helvetica, sans-serif" font-size="21" font-weight="400" fill="#111827" text-anchor="middle">3.2264 / 3.1812</text>
<text x="578" y="471" font-family="Arial, Helvetica, sans-serif" font-size="20" font-weight="400" fill="#111827" text-anchor="start">attempt7 / study04</text>
<rect x="20" y="12" width="1080" height="478" rx="8" ry="8" fill="none" stroke="#d1d5db" stroke-width="1.2"/>
</svg>