<svg xmlns="http://www.w3.org/2000/svg" width="1480" height="880" viewBox="0 0 1480 880">
<rect x="0" y="0" width="1480" height="880" rx="0" fill="#ffffff"/>
<text x="132" y="58" font-family="Arial, Helvetica, sans-serif" font-size="34" font-weight="700" fill="#111827" text-anchor="start">MAE by True Distance (Zoomed)</text>
<text x="132" y="88" font-family="Arial, Helvetica, sans-serif" font-size="18" font-weight="400" fill="#6b7280" text-anchor="start">Same test-distance view, but zoomed into the stronger-error range with thicker model traces.</text>
<text x="132" y="112" font-family="Arial, Helvetica, sans-serif" font-size="17" font-weight="700" fill="#64748b" text-anchor="start">Total n=15,064 | Train/CV n=12,804 | Test n=2,260 | Dropped=0</text>
<text x="666.0" y="856" font-family="Arial, Helvetica, sans-serif" font-size="20" font-weight="700" fill="#374151" text-anchor="middle">True distance (m)</text>
<text x="34" y="458.5" font-family="Arial, Helvetica, sans-serif" font-size="20" font-weight="700" fill="#374151" text-anchor="middle" transform="rotate(-90 34 458.5)">MAE (m)</text>
<line x1="132" y1="775.0" x2="1200" y2="775.0" stroke="#e5e7eb" stroke-width="1.0" stroke-dasharray="5 7"/>
<text x="116" y="781.0" font-family="Arial, Helvetica, sans-serif" font-size="16" font-weight="400" fill="#6b7280" text-anchor="end">0</text>
<line x1="132" y1="669.5" x2="1200" y2="669.5" stroke="#e5e7eb" stroke-width="1.0" stroke-dasharray="5 7"/>
<text x="116" y="675.5" font-family="Arial, Helvetica, sans-serif" font-size="16" font-weight="400" fill="#6b7280" text-anchor="end">6</text>
<line x1="132" y1="564.0" x2="1200" y2="564.0" stroke="#e5e7eb" stroke-width="1.0" stroke-dasharray="5 7"/>
<text x="116" y="570.0" font-family="Arial, Helvetica, sans-serif" font-size="16" font-weight="400" fill="#6b7280" text-anchor="end">12</text>
<line x1="132" y1="458.5" x2="1200" y2="458.5" stroke="#e5e7eb" stroke-width="1.0" stroke-dasharray="5 7"/>
<text x="116" y="464.5" font-family="Arial, Helvetica, sans-serif" font-size="16" font-weight="400" fill="#6b7280" text-anchor="end">18</text>
<line x1="132" y1="353.0" x2="1200" y2="353.0" stroke="#e5e7eb" stroke-width="1.0" stroke-dasharray="5 7"/>
<text x="116" y="359.0" font-family="Arial, Helvetica, sans-serif" font-size="16" font-weight="400" fill="#6b7280" text-anchor="end">23</text>
<line x1="132" y1="247.49999999999997" x2="1200" y2="247.49999999999997" stroke="#e5e7eb" stroke-width="1.0" stroke-dasharray="5 7"/>
<text x="116" y="253.49999999999997" font-family="Arial, Helvetica, sans-serif" font-size="16" font-weight="400" fill="#6b7280" text-anchor="end">29</text>
<line x1="132" y1="142.0" x2="1200" y2="142.0" stroke="#e5e7eb" stroke-width="1.0" stroke-dasharray="5 7"/>
<text x="116" y="148.0" font-family="Arial, Helvetica, sans-serif" font-size="16" font-weight="400" fill="#6b7280" text-anchor="end">35</text>
<line x1="132.0" y1="142" x2="132.0" y2="775" stroke="#f1f5f9" stroke-width="1.0"/>
<text x="132.0" y="807" font-family="Arial, Helvetica, sans-serif" font-size="16" font-weight="400" fill="#6b7280" text-anchor="middle">20</text>
<line x1="214.15384615384616" y1="142" x2="214.15384615384616" y2="775" stroke="#f1f5f9" stroke-width="1.0"/>
<text x="214.15384615384616" y="807" font-family="Arial, Helvetica, sans-serif" font-size="16" font-weight="400" fill="#6b7280" text-anchor="middle">30</text>
<line x1="296.3076923076923" y1="142" x2="296.3076923076923" y2="775" stroke="#f1f5f9" stroke-width="1.0"/>
<text x="296.3076923076923" y="807" font-family="Arial, Helvetica, sans-serif" font-size="16" font-weight="400" fill="#6b7280" text-anchor="middle">40</text>
<line x1="378.46153846153845" y1="142" x2="378.46153846153845" y2="775" stroke="#f1f5f9" stroke-width="1.0"/>
<text x="378.46153846153845" y="807" font-family="Arial, Helvetica, sans-serif" font-size="16" font-weight="400" fill="#6b7280" text-anchor="middle">50</text>
<line x1="460.61538461538464" y1="142" x2="460.61538461538464" y2="775" stroke="#f1f5f9" stroke-width="1.0"/>
<text x="460.61538461538464" y="807" font-family="Arial, Helvetica, sans-serif" font-size="16" font-weight="400" fill="#6b7280" text-anchor="middle">60</text>
<line x1="542.7692307692307" y1="142" x2="542.7692307692307" y2="775" stroke="#f1f5f9" stroke-width="1.0"/>
<text x="542.7692307692307" y="807" font-family="Arial, Helvetica, sans-serif" font-size="16" font-weight="400" fill="#6b7280" text-anchor="middle">70</text>
<line x1="624.9230769230769" y1="142" x2="624.9230769230769" y2="775" stroke="#f1f5f9" stroke-width="1.0"/>
<text x="624.9230769230769" y="807" font-family="Arial, Helvetica, sans-serif" font-size="16" font-weight="400" fill="#6b7280" text-anchor="middle">80</text>
<line x1="707.0769230769231" y1="142" x2="707.0769230769231" y2="775" stroke="#f1f5f9" stroke-width="1.0"/>
<text x="707.0769230769231" y="807" font-family="Arial, Helvetica, sans-serif" font-size="16" font-weight="400" fill="#6b7280" text-anchor="middle">90</text>
<line x1="789.2307692307693" y1="142" x2="789.2307692307693" y2="775" stroke="#f1f5f9" stroke-width="1.0"/>
<text x="789.2307692307693" y="807" font-family="Arial, Helvetica, sans-serif" font-size="16" font-weight="400" fill="#6b7280" text-anchor="middle">100</text>
<line x1="912.4615384615385" y1="142" x2="912.4615384615385" y2="775" stroke="#f1f5f9" stroke-width="1.0"/>
<text x="912.4615384615385" y="807" font-family="Arial, Helvetica, sans-serif" font-size="16" font-weight="400" fill="#6b7280" text-anchor="middle">115</text>
<line x1="994.6153846153846" y1="142" x2="994.6153846153846" y2="775" stroke="#f1f5f9" stroke-width="1.0"/>
<text x="994.6153846153846" y="807" font-family="Arial, Helvetica, sans-serif" font-size="16" font-weight="400" fill="#6b7280" text-anchor="middle">125</text>
<line x1="1200.0" y1="142" x2="1200.0" y2="775" stroke="#f1f5f9" stroke-width="1.0"/>
<text x="1200.0" y="807" font-family="Arial, Helvetica, sans-serif" font-size="16" font-weight="400" fill="#6b7280" text-anchor="middle">150</text>
<line x1="132" y1="775" x2="1200" y2="775" stroke="#111827" stroke-width="1.5"/>
<line x1="132" y1="142" x2="132" y2="775" stroke="#111827" stroke-width="1.5"/>
<polyline points="132.00,142.00 214.15,142.00 296.31,175.38 378.46,170.26 460.62,236.60 542.77,145.44 624.92,142.00 707.08,142.00 789.23,142.00 912.46,142.00 994.62,142.00 1200.00,142.00" fill="none" stroke="#9ca3af" stroke-width="3.0" stroke-linecap="round" stroke-linejoin="round"/>
<circle cx="132.0" cy="142.0" r="4.2" fill="#9ca3af" stroke="#ffffff" stroke-width="1.5"/>
<circle cx="214.15384615384616" cy="142.0" r="4.2" fill="#9ca3af" stroke="#ffffff" stroke-width="1.5"/>
<circle cx="296.3076923076923" cy="175.3774079148826" r="4.2" fill="#9ca3af" stroke="#ffffff" stroke-width="1.5"/>
<circle cx="378.46153846153845" cy="170.26139448963332" r="4.2" fill="#9ca3af" stroke="#ffffff" stroke-width="1.5"/>
<circle cx="460.61538461538464" cy="236.5978288876056" r="4.2" fill="#9ca3af" stroke="#ffffff" stroke-width="1.5"/>
<circle cx="542.7692307692307" cy="145.44261274712514" r="4.2" fill="#9ca3af" stroke="#ffffff" stroke-width="1.5"/>
<circle cx="624.9230769230769" cy="142.0" r="4.2" fill="#9ca3af" stroke="#ffffff" stroke-width="1.5"/>
<circle cx="707.0769230769231" cy="142.0" r="4.2" fill="#9ca3af" stroke="#ffffff" stroke-width="1.5"/>
<circle cx="789.2307692307693" cy="142.0" r="4.2" fill="#9ca3af" stroke="#ffffff" stroke-width="1.5"/>
<circle cx="912.4615384615385" cy="142.0" r="4.2" fill="#9ca3af" stroke="#ffffff" stroke-width="1.5"/>
<circle cx="994.6153846153846" cy="142.0" r="4.2" fill="#9ca3af" stroke="#ffffff" stroke-width="1.5"/>
<circle cx="1200.0" cy="142.0" r="4.2" fill="#9ca3af" stroke="#ffffff" stroke-width="1.5"/>
<polyline points="132.00,142.00 214.15,142.00 296.31,142.00 378.46,281.58 460.62,462.71 542.77,644.11 624.92,725.83 707.08,540.70 789.23,362.19 912.46,142.00 994.62,142.00 1200.00,142.00" fill="none" stroke="#64748b" stroke-width="3.0" stroke-linecap="round" stroke-linejoin="round"/>
<circle cx="132.0" cy="142.0" r="4.2" fill="#64748b" stroke="#ffffff" stroke-width="1.5"/>
<circle cx="214.15384615384616" cy="142.0" r="4.2" fill="#64748b" stroke="#ffffff" stroke-width="1.5"/>
<circle cx="296.3076923076923" cy="142.0" r="4.2" fill="#64748b" stroke="#ffffff" stroke-width="1.5"/>
<circle cx="378.46153846153845" cy="281.57814194843206" r="4.2" fill="#64748b" stroke="#ffffff" stroke-width="1.5"/>
<circle cx="460.61538461538464" cy="462.7137981124128" r="4.2" fill="#64748b" stroke="#ffffff" stroke-width="1.5"/>
<circle cx="542.7692307692307" cy="644.110969087007" r="4.2" fill="#64748b" stroke="#ffffff" stroke-width="1.5"/>
<circle cx="624.9230769230769" cy="725.8323986380478" r="4.2" fill="#64748b" stroke="#ffffff" stroke-width="1.5"/>
<circle cx="707.0769230769231" cy="540.6983559572855" r="4.2" fill="#64748b" stroke="#ffffff" stroke-width="1.5"/>
<circle cx="789.2307692307693" cy="362.1930713533166" r="4.2" fill="#64748b" stroke="#ffffff" stroke-width="1.5"/>
<circle cx="912.4615384615385" cy="142.0" r="4.2" fill="#64748b" stroke="#ffffff" stroke-width="1.5"/>
<circle cx="994.6153846153846" cy="142.0" r="4.2" fill="#64748b" stroke="#ffffff" stroke-width="1.5"/>
<circle cx="1200.0" cy="142.0" r="4.2" fill="#64748b" stroke="#ffffff" stroke-width="1.5"/>
<polyline points="132.00,600.33 214.15,617.66 296.31,552.44 378.46,441.55 460.62,511.45 542.77,573.00 624.92,577.66 707.08,591.30 789.23,653.70 912.46,644.14 994.62,501.33 1200.00,174.43" fill="none" stroke="#475569" stroke-width="3.0" stroke-linecap="round" stroke-linejoin="round"/>
<circle cx="132.0" cy="600.3334824090202" r="4.2" fill="#475569" stroke="#ffffff" stroke-width="1.5"/>
<circle cx="214.15384615384616" cy="617.6566313960556" r="4.2" fill="#475569" stroke="#ffffff" stroke-width="1.5"/>
<circle cx="296.3076923076923" cy="552.4424760600311" r="4.2" fill="#475569" stroke="#ffffff" stroke-width="1.5"/>
<circle cx="378.46153846153845" cy="441.5548651653861" r="4.2" fill="#475569" stroke="#ffffff" stroke-width="1.5"/>
<circle cx="460.61538461538464" cy="511.4527463248233" r="4.2" fill="#475569" stroke="#ffffff" stroke-width="1.5"/>
<circle cx="542.7692307692307" cy="572.9968631963343" r="4.2" fill="#475569" stroke="#ffffff" stroke-width="1.5"/>
<circle cx="624.9230769230769" cy="577.6593013185035" r="4.2" fill="#475569" stroke="#ffffff" stroke-width="1.5"/>
<circle cx="707.0769230769231" cy="591.3037628363811" r="4.2" fill="#475569" stroke="#ffffff" stroke-width="1.5"/>
<circle cx="789.2307692307693" cy="653.7009465817671" r="4.2" fill="#475569" stroke="#ffffff" stroke-width="1.5"/>
<circle cx="912.4615384615385" cy="644.1371012640518" r="4.2" fill="#475569" stroke="#ffffff" stroke-width="1.5"/>
<circle cx="994.6153846153846" cy="501.33056502425694" r="4.2" fill="#475569" stroke="#ffffff" stroke-width="1.5"/>
<circle cx="1200.0" cy="174.42982893061156" r="4.2" fill="#475569" stroke="#ffffff" stroke-width="1.5"/>
<polyline points="132.00,594.10 214.15,597.65 296.31,571.45 378.46,493.73 460.62,532.65 542.77,589.68 624.92,579.96 707.08,592.36 789.23,649.84 912.46,637.71 994.62,530.16 1200.00,230.65" fill="none" stroke="#1f2937" stroke-width="3.0" stroke-linecap="round" stroke-linejoin="round"/>
<circle cx="132.0" cy="594.1026199792497" r="4.2" fill="#1f2937" stroke="#ffffff" stroke-width="1.5"/>
<circle cx="214.15384615384616" cy="597.6508356376421" r="4.2" fill="#1f2937" stroke="#ffffff" stroke-width="1.5"/>
<circle cx="296.3076923076923" cy="571.4470629223301" r="4.2" fill="#1f2937" stroke="#ffffff" stroke-width="1.5"/>
<circle cx="378.46153846153845" cy="493.7325430986396" r="4.2" fill="#1f2937" stroke="#ffffff" stroke-width="1.5"/>
<circle cx="460.61538461538464" cy="532.6459086496118" r="4.2" fill="#1f2937" stroke="#ffffff" stroke-width="1.5"/>
<circle cx="542.7692307692307" cy="589.6817008068429" r="4.2" fill="#1f2937" stroke="#ffffff" stroke-width="1.5"/>
<circle cx="624.9230769230769" cy="579.9645831674042" r="4.2" fill="#1f2937" stroke="#ffffff" stroke-width="1.5"/>
<circle cx="707.0769230769231" cy="592.3635633365718" r="4.2" fill="#1f2937" stroke="#ffffff" stroke-width="1.5"/>
<circle cx="789.2307692307693" cy="649.8427015763298" r="4.2" fill="#1f2937" stroke="#ffffff" stroke-width="1.5"/>
<circle cx="912.4615384615385" cy="637.7052794885601" r="4.2" fill="#1f2937" stroke="#ffffff" stroke-width="1.5"/>
<circle cx="994.6153846153846" cy="530.1578801209822" r="4.2" fill="#1f2937" stroke="#ffffff" stroke-width="1.5"/>
<circle cx="1200.0" cy="230.65017997619952" r="4.2" fill="#1f2937" stroke="#ffffff" stroke-width="1.5"/>
<polyline points="132.00,756.33 214.15,736.68 296.31,702.35 378.46,666.41 460.62,673.04 542.77,660.32 624.92,622.03 707.08,615.70 789.23,583.39 912.46,582.90 994.62,599.38 1200.00,543.61" fill="none" stroke="#2563eb" stroke-width="3.0" stroke-linecap="round" stroke-linejoin="round"/>
<circle cx="132.0" cy="756.3330044284027" r="4.2" fill="#2563eb" stroke="#ffffff" stroke-width="1.5"/>
<circle cx="214.15384615384616" cy="736.6828174510894" r="4.2" fill="#2563eb" stroke="#ffffff" stroke-width="1.5"/>
<circle cx="296.3076923076923" cy="702.3481596748202" r="4.2" fill="#2563eb" stroke="#ffffff" stroke-width="1.5"/>
<circle cx="378.46153846153845" cy="666.40817954261" r="4.2" fill="#2563eb" stroke="#ffffff" stroke-width="1.5"/>
<circle cx="460.61538461538464" cy="673.0379679748959" r="4.2" fill="#2563eb" stroke="#ffffff" stroke-width="1.5"/>
<circle cx="542.7692307692307" cy="660.3193303261461" r="4.2" fill="#2563eb" stroke="#ffffff" stroke-width="1.5"/>
<circle cx="624.9230769230769" cy="622.0329416181248" r="4.2" fill="#2563eb" stroke="#ffffff" stroke-width="1.5"/>
<circle cx="707.0769230769231" cy="615.697951864353" r="4.2" fill="#2563eb" stroke="#ffffff" stroke-width="1.5"/>
<circle cx="789.2307692307693" cy="583.3919636856995" r="4.2" fill="#2563eb" stroke="#ffffff" stroke-width="1.5"/>
<circle cx="912.4615384615385" cy="582.9014351437622" r="4.2" fill="#2563eb" stroke="#ffffff" stroke-width="1.5"/>
<circle cx="994.6153846153846" cy="599.3824980872755" r="4.2" fill="#2563eb" stroke="#ffffff" stroke-width="1.5"/>
<circle cx="1200.0" cy="543.6062291504569" r="4.2" fill="#2563eb" stroke="#ffffff" stroke-width="1.5"/>
<polyline points="132.00,756.44 214.15,737.85 296.31,717.44 378.46,675.59 460.62,680.44 542.77,668.89 624.92,633.18 707.08,644.91 789.23,599.64 912.46,616.13 994.62,621.86 1200.00,563.82" fill="none" stroke="#0f766e" stroke-width="3.0" stroke-linecap="round" stroke-linejoin="round"/>
<circle cx="132.0" cy="756.4377779442668" r="4.2" fill="#0f766e" stroke="#ffffff" stroke-width="1.5"/>
<circle cx="214.15384615384616" cy="737.8505434836006" r="4.2" fill="#0f766e" stroke="#ffffff" stroke-width="1.5"/>
<circle cx="296.3076923076923" cy="717.4400158507323" r="4.2" fill="#0f766e" stroke="#ffffff" stroke-width="1.5"/>
<circle cx="378.46153846153845" cy="675.5855204129406" r="4.2" fill="#0f766e" stroke="#ffffff" stroke-width="1.5"/>
<circle cx="460.61538461538464" cy="680.4413648363562" r="4.2" fill="#0f766e" stroke="#ffffff" stroke-width="1.5"/>
<circle cx="542.7692307692307" cy="668.8904309014457" r="4.2" fill="#0f766e" stroke="#ffffff" stroke-width="1.5"/>
<circle cx="624.9230769230769" cy="633.1802198306884" r="4.2" fill="#0f766e" stroke="#ffffff" stroke-width="1.5"/>
<circle cx="707.0769230769231" cy="644.9101658352253" r="4.2" fill="#0f766e" stroke="#ffffff" stroke-width="1.5"/>
<circle cx="789.2307692307693" cy="599.642239589074" r="4.2" fill="#0f766e" stroke="#ffffff" stroke-width="1.5"/>
<circle cx="912.4615384615385" cy="616.1266277653714" r="4.2" fill="#0f766e" stroke="#ffffff" stroke-width="1.5"/>
<circle cx="994.6153846153846" cy="621.8579461762749" r="4.2" fill="#0f766e" stroke="#ffffff" stroke-width="1.5"/>
<circle cx="1200.0" cy="563.8187442672629" r="4.2" fill="#0f766e" stroke="#ffffff" stroke-width="1.5"/>
<polyline points="132.00,751.47 214.15,736.23 296.31,714.82 378.46,683.09 460.62,683.57 542.77,675.47 624.92,645.00 707.08,651.73 789.23,625.08 912.46,626.30 994.62,616.43 1200.00,585.32" fill="none" stroke="#d97706" stroke-width="4.4" stroke-linecap="round" stroke-linejoin="round"/>
<circle cx="132.0" cy="751.4748703353919" r="5.4" fill="#d97706" stroke="#ffffff" stroke-width="1.5"/>
<circle cx="214.15384615384616" cy="736.2322398272556" r="5.4" fill="#d97706" stroke="#ffffff" stroke-width="1.5"/>
<circle cx="296.3076923076923" cy="714.8188447811636" r="5.4" fill="#d97706" stroke="#ffffff" stroke-width="1.5"/>
<circle cx="378.46153846153845" cy="683.0925414529264" r="5.4" fill="#d97706" stroke="#ffffff" stroke-width="1.5"/>
<circle cx="460.61538461538464" cy="683.5651256671345" r="5.4" fill="#d97706" stroke="#ffffff" stroke-width="1.5"/>
<circle cx="542.7692307692307" cy="675.4736512545285" r="5.4" fill="#d97706" stroke="#ffffff" stroke-width="1.5"/>
<circle cx="624.9230769230769" cy="645.0041316312902" r="5.4" fill="#d97706" stroke="#ffffff" stroke-width="1.5"/>
<circle cx="707.0769230769231" cy="651.7285080982867" r="5.4" fill="#d97706" stroke="#ffffff" stroke-width="1.5"/>
<circle cx="789.2307692307693" cy="625.0816389263582" r="5.4" fill="#d97706" stroke="#ffffff" stroke-width="1.5"/>
<circle cx="912.4615384615385" cy="626.3010678995831" r="5.4" fill="#d97706" stroke="#ffffff" stroke-width="1.5"/>
<circle cx="994.6153846153846" cy="616.431107746846" r="5.4" fill="#d97706" stroke="#ffffff" stroke-width="1.5"/>
<circle cx="1200.0" cy="585.316071234809" r="5.4" fill="#d97706" stroke="#ffffff" stroke-width="1.5"/>
<polyline points="132.00,752.58 214.15,737.25 296.31,716.55 378.46,684.02 460.62,683.89 542.77,676.32 624.92,644.88 707.08,652.73 789.23,622.41 912.46,625.94 994.62,618.53 1200.00,582.83" fill="none" stroke="#dc2626" stroke-width="4.4" stroke-linecap="round" stroke-linejoin="round"/>
<circle cx="132.0" cy="752.5789790616714" r="5.4" fill="#dc2626" stroke="#ffffff" stroke-width="1.5"/>
<circle cx="214.15384615384616" cy="737.2461754946727" r="5.4" fill="#dc2626" stroke="#ffffff" stroke-width="1.5"/>
<circle cx="296.3076923076923" cy="716.5477004063513" r="5.4" fill="#dc2626" stroke="#ffffff" stroke-width="1.5"/>
<circle cx="378.46153846153845" cy="684.0172983796267" r="5.4" fill="#dc2626" stroke="#ffffff" stroke-width="1.5"/>
<circle cx="460.61538461538464" cy="683.8865287727301" r="5.4" fill="#dc2626" stroke="#ffffff" stroke-width="1.5"/>
<circle cx="542.7692307692307" cy="676.3245395806363" r="5.4" fill="#dc2626" stroke="#ffffff" stroke-width="1.5"/>
<circle cx="624.9230769230769" cy="644.8841932129885" r="5.4" fill="#dc2626" stroke="#ffffff" stroke-width="1.5"/>
<circle cx="707.0769230769231" cy="652.7257547599074" r="5.4" fill="#dc2626" stroke="#ffffff" stroke-width="1.5"/>
<circle cx="789.2307692307693" cy="622.4083906283724" r="5.4" fill="#dc2626" stroke="#ffffff" stroke-width="1.5"/>
<circle cx="912.4615384615385" cy="625.9378186994459" r="5.4" fill="#dc2626" stroke="#ffffff" stroke-width="1.5"/>
<circle cx="994.6153846153846" cy="618.5307692079599" r="5.4" fill="#dc2626" stroke="#ffffff" stroke-width="1.5"/>
<circle cx="1200.0" cy="582.826472751095" r="5.4" fill="#dc2626" stroke="#ffffff" stroke-width="1.5"/>
<text x="1242" y="132" font-family="Arial, Helvetica, sans-serif" font-size="20" font-weight="700" fill="#111827" text-anchor="start">Models</text>
<line x1="1242" y1="160" x2="1278" y2="160" stroke="#9ca3af" stroke-width="3"/>
<circle cx="1260" cy="160" r="4" fill="#9ca3af" stroke="#ffffff" stroke-width="1.5"/>
<text x="1292" y="166" font-family="Arial, Helvetica, sans-serif" font-size="17" font-weight="600" fill="#111827" text-anchor="start">scale only</text>
<line x1="1242" y1="194" x2="1278" y2="194" stroke="#64748b" stroke-width="3"/>
<circle cx="1260" cy="194" r="4" fill="#64748b" stroke="#ffffff" stroke-width="1.5"/>
<text x="1292" y="200" font-family="Arial, Helvetica, sans-serif" font-size="17" font-weight="600" fill="#111827" text-anchor="start">depth linear</text>
<line x1="1242" y1="228" x2="1278" y2="228" stroke="#475569" stroke-width="3"/>
<circle cx="1260" cy="228" r="4" fill="#475569" stroke="#ffffff" stroke-width="1.5"/>
<text x="1292" y="234" font-family="Arial, Helvetica, sans-serif" font-size="17" font-weight="600" fill="#111827" text-anchor="start">linear+bb</text>
<line x1="1242" y1="262" x2="1278" y2="262" stroke="#1f2937" stroke-width="3"/>
<circle cx="1260" cy="262" r="4" fill="#1f2937" stroke="#ffffff" stroke-width="1.5"/>
<text x="1292" y="268" font-family="Arial, Helvetica, sans-serif" font-size="17" font-weight="600" fill="#111827" text-anchor="start">improved linear</text>
<line x1="1242" y1="296" x2="1278" y2="296" stroke="#2563eb" stroke-width="3"/>
<circle cx="1260" cy="296" r="4" fill="#2563eb" stroke="#ffffff" stroke-width="1.5"/>
<text x="1292" y="302" font-family="Arial, Helvetica, sans-serif" font-size="17" font-weight="600" fill="#111827" text-anchor="start">RF</text>
<line x1="1242" y1="330" x2="1278" y2="330" stroke="#0f766e" stroke-width="3"/>
<circle cx="1260" cy="330" r="4" fill="#0f766e" stroke="#ffffff" stroke-width="1.5"/>
<text x="1292" y="336" font-family="Arial, Helvetica, sans-serif" font-size="17" font-weight="600" fill="#111827" text-anchor="start">RF+jitter</text>
<line x1="1242" y1="364" x2="1278" y2="364" stroke="#d97706" stroke-width="3"/>
<circle cx="1260" cy="364" r="4" fill="#d97706" stroke="#ffffff" stroke-width="1.5"/>
<text x="1292" y="370" font-family="Arial, Helvetica, sans-serif" font-size="17" font-weight="600" fill="#111827" text-anchor="start">XGBoost+jitter</text>
<line x1="1242" y1="398" x2="1278" y2="398" stroke="#dc2626" stroke-width="3"/>
<circle cx="1260" cy="398" r="4" fill="#dc2626" stroke="#ffffff" stroke-width="1.5"/>
<text x="1292" y="404" font-family="Arial, Helvetica, sans-serif" font-size="17" font-weight="600" fill="#111827" text-anchor="start">ensemble</text>
</svg>